<?xml version="1.0" encoding="UTF-8" standalone="no"?>
<!-- Created with Inkscape (http://www.inkscape.org/) -->

<svg
   xmlns:dc="http://purl.org/dc/elements/1.1/"
   xmlns:cc="http://creativecommons.org/ns#"
   xmlns:rdf="http://www.w3.org/1999/02/22-rdf-syntax-ns#"
   xmlns:svg="http://www.w3.org/2000/svg"
   xmlns="http://www.w3.org/2000/svg"
   xmlns:xlink="http://www.w3.org/1999/xlink"
   xmlns:sodipodi="http://sodipodi.sourceforge.net/DTD/sodipodi-0.dtd"
   xmlns:inkscape="http://www.inkscape.org/namespaces/inkscape"
   id="svg2"
   version="1.1"
   inkscape:version="0.48.2 r9819"
   width="407.31865"
   height="396.40293"
   xml:space="preserve"
   sodipodi:docname="inter-guild-competition copy.pdf"><metadata
     id="metadata8"><rdf:RDF><cc:Work
         rdf:about=""><dc:format>image/svg+xml</dc:format><dc:type
           rdf:resource="http://purl.org/dc/dcmitype/StillImage" /><dc:title></dc:title></cc:Work></rdf:RDF></metadata><defs
     id="defs6"><linearGradient
       id="linearGradient3886"><stop
         style="stop-color:#fccde5;stop-opacity:1;"
         offset="0"
         id="stop3888" /><stop
         style="stop-color:#b3de69;stop-opacity:1;"
         offset="1"
         id="stop3890" /></linearGradient><linearGradient
       id="linearGradient3878"><stop
         style="stop-color:#fdb462;stop-opacity:1;"
         offset="0"
         id="stop3880" /><stop
         style="stop-color:#b3de69;stop-opacity:1;"
         offset="1"
         id="stop3882" /></linearGradient><linearGradient
       id="linearGradient3870"><stop
         style="stop-color:#80b1d3;stop-opacity:1;"
         offset="0"
         id="stop3872" /><stop
         style="stop-color:#b3de69;stop-opacity:1;"
         offset="1"
         id="stop3874" /></linearGradient><linearGradient
       id="linearGradient3862"><stop
         style="stop-color:#fb8072;stop-opacity:1;"
         offset="0"
         id="stop3864" /><stop
         style="stop-color:#b3de69;stop-opacity:1;"
         offset="1"
         id="stop3866" /></linearGradient><linearGradient
       id="linearGradient3850"><stop
         style="stop-color:#bebada;stop-opacity:1;"
         offset="0"
         id="stop3852" /><stop
         style="stop-color:#b3de69;stop-opacity:1;"
         offset="1"
         id="stop3854" /></linearGradient><linearGradient
       id="linearGradient3842"><stop
         style="stop-color:#d9d9d9;stop-opacity:1;"
         offset="0"
         id="stop3844" /><stop
         style="stop-color:#b3de69;stop-opacity:1;"
         offset="1"
         id="stop3846" /></linearGradient><linearGradient
       id="linearGradient3826"><stop
         style="stop-color:#b3de69;stop-opacity:1;"
         offset="0"
         id="stop3828" /><stop
         style="stop-color:#8dd3c7;stop-opacity:1;"
         offset="1"
         id="stop3830" /></linearGradient><linearGradient
       inkscape:collect="always"
       xlink:href="#linearGradient3826"
       id="linearGradient3832"
       x1="159.08386"
       y1="75.3181"
       x2="159.21175"
       y2="36.30695"
       gradientUnits="userSpaceOnUse" /><linearGradient
       inkscape:collect="always"
       xlink:href="#linearGradient3842"
       id="linearGradient3848"
       x1="251.4433"
       y1="80.449394"
       x2="214.6311"
       y2="124.12091"
       gradientUnits="userSpaceOnUse" /><linearGradient
       inkscape:collect="always"
       xlink:href="#linearGradient3850"
       id="linearGradient3856"
       x1="279.80069"
       y1="182.7831"
       x2="239.4066"
       y2="183.45496"
       gradientUnits="userSpaceOnUse" /><linearGradient
       inkscape:collect="always"
       xlink:href="#linearGradient3842"
       id="linearGradient3858"
       gradientUnits="userSpaceOnUse"
       x1="251.4433"
       y1="80.449394"
       x2="221.68573"
       y2="114.04287" /><linearGradient
       inkscape:collect="always"
       xlink:href="#linearGradient3850"
       id="linearGradient3860"
       gradientUnits="userSpaceOnUse"
       x1="291.89435"
       y1="184.46277"
       x2="239.4066"
       y2="183.45496" /><linearGradient
       inkscape:collect="always"
       xlink:href="#linearGradient3862"
       id="linearGradient3868"
       x1="241.64783"
       y1="289.0835"
       x2="211.32878"
       y2="240.37296"
       gradientUnits="userSpaceOnUse" /><linearGradient
       inkscape:collect="always"
       xlink:href="#linearGradient3870"
       id="linearGradient3876"
       x1="110.52251"
       y1="271.77115"
       x2="124.63177"
       y2="243.88857"
       gradientUnits="userSpaceOnUse" /><linearGradient
       inkscape:collect="always"
       xlink:href="#linearGradient3878"
       id="linearGradient3884"
       x1="32.69886"
       y1="194.15044"
       x2="76.625381"
       y2="180.04117"
       gradientUnits="userSpaceOnUse" /><linearGradient
       inkscape:collect="always"
       xlink:href="#linearGradient3886"
       id="linearGradient3892"
       x1="59.898422"
       y1="82.318611"
       x2="103.48801"
       y2="119.60736"
       gradientUnits="userSpaceOnUse" /></defs><sodipodi:namedview
     pagecolor="#ffffff"
     bordercolor="#666666"
     borderopacity="1"
     objecttolerance="10"
     gridtolerance="10"
     guidetolerance="10"
     inkscape:pageopacity="0"
     inkscape:pageshadow="2"
     inkscape:window-width="1920"
     inkscape:window-height="1032"
     id="namedview4"
     showgrid="false"
     inkscape:zoom="2.3814153"
     inkscape:cx="131.56615"
     inkscape:cy="152.86828"
     inkscape:window-x="0"
     inkscape:window-y="0"
     inkscape:window-maximized="1"
     inkscape:current-layer="g10" /><g
     id="g10"
     inkscape:groupmode="layer"
     inkscape:label="inter-guild-competition copy"
     transform="matrix(1.25,0,0,-1.25,0,396.40293)"><path
       inkscape:connector-curvature="0"
       id="path14"
       style="fill:#b3de69;fill-opacity:1;fill-rule:nonzero;stroke:none"
       d="m 280.695,152.935 c 0,-66.199 -53.664,-119.863 -119.863,-119.863 -66.199,0 -119.863,53.664 -119.863,119.863 0,66.199 53.664,119.863 119.863,119.863 66.199,0 119.863,-53.664 119.863,-119.863 z" /><g
       transform="matrix(1,0,0,-1,0,317.12234)"
       id="g16"><path
         inkscape:connector-curvature="0"
         id="path18"
         style="fill:none;stroke:#b3de69;stroke-width:2.56192589;stroke-linecap:square;stroke-linejoin:miter;stroke-miterlimit:4;stroke-opacity:1;stroke-dasharray:none"
         d="m 280.695,164.188 c 0,66.199 -53.664,119.863 -119.863,119.863 -66.199,0 -119.863,-53.664 -119.863,-119.863 0,-66.2 53.664,-119.864 119.863,-119.864 66.199,0 119.863,53.664 119.863,119.864 z" /></g><g
       transform="matrix(1,0,0,-1,0,317.12234)"
       id="g20"
       style="stroke:none;fill:url(#linearGradient3892);fill-opacity:1"><path
         inkscape:connector-curvature="0"
         id="path22"
         style="fill:url(#linearGradient3892);fill-opacity:1;fill-rule:nonzero;stroke:none;stroke-width:2.23720789000000009;stroke-linecap:square;stroke-linejoin:miter;stroke-miterlimit:4;stroke-opacity:1;stroke-dasharray:none"
         d="m 118.941,95.754 c 0,27.066 -21.941,49.008 -49.007,49.008 -27.063,0 -49.004,-21.942 -49.004,-49.008 0,-27.063 21.941,-49.004 49.004,-49.004 27.066,0 49.007,21.941 49.007,49.004 z" /></g><g
       transform="matrix(1,0,0,-1,0,317.12234)"
       id="g24"
       style="stroke:none;fill:url(#linearGradient3884);fill-opacity:1"><path
         inkscape:connector-curvature="0"
         id="path26"
         style="fill:url(#linearGradient3884);fill-opacity:1;fill-rule:nonzero;stroke:none;stroke-width:2.23720789000000009;stroke-linecap:square;stroke-linejoin:miter;stroke-miterlimit:4;stroke-opacity:1;stroke-dasharray:none"
         d="m 99.133,193.812 c 0,27.067 -21.942,49.008 -49.004,49.008 -27.067,0 -49.008,-21.941 -49.008,-49.008 0,-27.062 21.941,-49.003 49.008,-49.003 27.062,0 49.004,21.941 49.004,49.003 z" /></g><g
       transform="matrix(1,0,0,-1,0,317.12234)"
       id="g28"
       style="stroke:none;fill:url(#linearGradient3876);fill-opacity:1"><path
         inkscape:connector-curvature="0"
         id="path30"
         style="fill:url(#linearGradient3876);fill-opacity:1.0;fill-rule:nonzero;stroke:none;stroke-width:2.23720789000000009;stroke-linecap:square;stroke-linejoin:miter;stroke-miterlimit:4;stroke-opacity:1;stroke-dasharray:none"
         d="m 166.965,266.992 c 0,27.067 -21.938,49.004 -49.004,49.004 -27.066,0 -49.008,-21.937 -49.008,-49.004 0,-27.066 21.942,-49.004 49.008,-49.004 27.066,0 49.004,21.938 49.004,49.004 z" /></g><g
       transform="matrix(1,0,0,-1,0,317.12234)"
       id="g32"
       style="stroke:none;fill:url(#linearGradient3856);fill-opacity:1"><path
         inkscape:connector-curvature="0"
         id="path34"
         style="fill:url(#linearGradient3860);fill-opacity:1;fill-rule:nonzero;stroke:none;stroke-width:2.23720789000000009;stroke-linecap:square;stroke-linejoin:miter;stroke-miterlimit:4;stroke-opacity:1;stroke-dasharray:none"
         d="m 324.734,185.805 c 0,27.066 -21.941,49.007 -49.007,49.007 -27.063,0 -49.004,-21.941 -49.004,-49.007 0,-27.063 21.941,-49.004 49.004,-49.004 27.066,0 49.007,21.941 49.007,49.004 z" /></g><g
       transform="matrix(1,0,0,-1,0,317.12234)"
       id="g36"
       style="stroke:none;fill:url(#linearGradient3832);fill-opacity:1"><path
         inkscape:connector-curvature="0"
         id="path38"
         style="fill:url(#linearGradient3832);fill-opacity:1;fill-rule:nonzero;stroke:none;stroke-width:2.23720789000000009;stroke-linecap:square;stroke-linejoin:miter;stroke-miterlimit:4;stroke-opacity:1;stroke-dasharray:none"
         d="m 207.418,50.125 c 0,27.066 -21.938,49.004 -49.004,49.004 -27.066,0 -49.008,-21.938 -49.008,-49.004 0,-27.066 21.942,-49.008 49.008,-49.008 27.066,0 49.004,21.942 49.004,49.008 z" /></g><g
       transform="matrix(1,0,0,-1,0,317.12234)"
       id="g40"
       style="fill:url(#linearGradient3848);fill-opacity:1;stroke:none"><path
         inkscape:connector-curvature="0"
         id="path42"
         style="fill:url(#linearGradient3858);fill-opacity:1;fill-rule:nonzero;stroke:none;stroke-width:2.23717690000000013;stroke-linecap:square;stroke-linejoin:miter;stroke-miterlimit:4;stroke-opacity:1;stroke-dasharray:none"
         d="m 298.504,90.191 c 0,27.067 -21.942,49.004 -49.008,49.004 -27.062,0 -49.004,-21.937 -49.004,-49.004 0,-27.066 21.942,-49.003 49.004,-49.003 27.066,0 49.008,21.937 49.008,49.003 z" /></g><g
       transform="matrix(1,0,0,-1,0,317.12234)"
       id="g44"
       style="stroke:none;fill:url(#linearGradient3868);fill-opacity:1"><path
         inkscape:connector-curvature="0"
         id="path46"
         style="fill:url(#linearGradient3868);fill-opacity:1;fill-rule:nonzero;stroke:none;stroke-width:2.23720789000000009;stroke-linecap:square;stroke-linejoin:miter;stroke-miterlimit:4;stroke-opacity:1;stroke-dasharray:none"
         d="m 266.758,265.906 c 0,27.063 -21.938,49.004 -49.004,49.004 -27.066,0 -49.004,-21.941 -49.004,-49.004 0,-27.066 21.938,-49.008 49.004,-49.008 27.066,0 49.004,21.942 49.004,49.008 z" /></g></g></svg>