<?xml version="1.0" encoding="UTF-8" standalone="no"?>
<!-- Created with Inkscape (http://www.inkscape.org/) -->

<svg
   xmlns:dc="http://purl.org/dc/elements/1.1/"
   xmlns:cc="http://creativecommons.org/ns#"
   xmlns:rdf="http://www.w3.org/1999/02/22-rdf-syntax-ns#"
   xmlns:svg="http://www.w3.org/2000/svg"
   xmlns="http://www.w3.org/2000/svg"
   xmlns:sodipodi="http://sodipodi.sourceforge.net/DTD/sodipodi-0.dtd"
   xmlns:inkscape="http://www.inkscape.org/namespaces/inkscape"
   id="svg2"
   version="1.1"
   inkscape:version="0.48.2 r9819"
   width="900"
   height="900"
   xml:space="preserve"
   sodipodi:docname="Figure-3 Burin.pdf"><metadata
     id="metadata8"><rdf:RDF><cc:Work
         rdf:about=""><dc:format>image/svg+xml</dc:format><dc:type
           rdf:resource="http://purl.org/dc/dcmitype/StillImage" /><dc:title></dc:title></cc:Work></rdf:RDF></metadata><defs
     id="defs6" /><sodipodi:namedview
     pagecolor="#ffffff"
     bordercolor="#666666"
     borderopacity="1"
     objecttolerance="10"
     gridtolerance="10"
     guidetolerance="10"
     inkscape:pageopacity="0"
     inkscape:pageshadow="2"
     inkscape:window-width="1440"
     inkscape:window-height="852"
     id="namedview4"
     showgrid="false"
     inkscape:zoom="0.74167645"
     inkscape:cx="353.66272"
     inkscape:cy="404.9161"
     inkscape:window-x="0"
     inkscape:window-y="0"
     inkscape:window-maximized="1"
     inkscape:current-layer="g10" /><g
     id="g10"
     inkscape:groupmode="layer"
     inkscape:label="Figure-3 Burin"
     transform="matrix(1.25,0,0,-1.25,0,900)"><g
       id="g12"
       style="fill:#000000"
       transform="translate(-1.8876156,0)"><path
         d="M 0,0 720,0 720,720 0,720 0,0 z"
         style="fill:#000000;fill-opacity:1;fill-rule:nonzero;stroke:none"
         id="path14"
         inkscape:connector-curvature="0" /></g><path
       inkscape:connector-curvature="0"
       id="path18"
       style="fill:none;stroke:#bce4bc;stroke-width:3.2;stroke-linecap:round;stroke-linejoin:round;stroke-miterlimit:10;stroke-opacity:1;stroke-dasharray:none"
       d="M 233.01,110.09 429.43,89.1" /><path
       inkscape:connector-curvature="0"
       id="path20"
       style="fill:#bce4bc;fill-opacity:1;fill-rule:nonzero;stroke:none"
       d="m 428.76,82.78 11.63,5.15 -10.28,7.5 -1.35,-12.65 z" /><path
       inkscape:connector-curvature="0"
       id="path22"
       style="fill:none;stroke:#bae4ba;stroke-width:3.2;stroke-linecap:round;stroke-linejoin:round;stroke-miterlimit:10;stroke-opacity:1;stroke-dasharray:none"
       d="M 221.09,146.01 407.32,318.55" /><path
       inkscape:connector-curvature="0"
       id="path24"
       style="fill:#bae4ba;fill-opacity:1;fill-rule:nonzero;stroke:none"
       d="m 411.65,313.88 3.76,12.16 -12.41,-2.82 8.65,-9.34 z" /><path
       inkscape:connector-curvature="0"
       id="path26"
       style="fill:none;stroke:#b8e3b8;stroke-width:3.2;stroke-linecap:round;stroke-linejoin:round;stroke-miterlimit:10;stroke-opacity:1;stroke-dasharray:none"
       d="M 573.45,338.42 394.59,590.64" /><path
       inkscape:connector-curvature="0"
       id="path28"
       style="fill:#b8e3b8;fill-opacity:1;fill-rule:nonzero;stroke:none"
       d="m 399.79,594.32 -11.57,5.31 1.18,-12.67 10.39,7.36 z" /><path
       inkscape:connector-curvature="0"
       id="path30"
       style="fill:none;stroke:#9fd99f;stroke-width:3.2;stroke-linecap:round;stroke-linejoin:round;stroke-miterlimit:10;stroke-opacity:1;stroke-dasharray:none"
       d="M 455.04,311.81 478.28,139.3" /><path
       inkscape:connector-curvature="0"
       id="path32"
       style="fill:#9fd99f;fill-opacity:1;fill-rule:nonzero;stroke:none"
       d="m 471.97,138.46 7.78,-10.08 4.83,11.77 -12.61,-1.69 z" /><path
       inkscape:connector-curvature="0"
       id="path34"
       style="fill:none;stroke:#90d390;stroke-width:3.2;stroke-linecap:round;stroke-linejoin:round;stroke-miterlimit:10;stroke-opacity:1;stroke-dasharray:none"
       d="M 147.69,519.33 398.99,384.01" /><path
       inkscape:connector-curvature="0"
       id="path36"
       style="fill:#90d390;fill-opacity:1;fill-rule:nonzero;stroke:none"
       d="m 395.97,378.41 12.72,0.37 -6.68,10.83 -6.04,-11.2 z" /><path
       inkscape:connector-curvature="0"
       id="path38"
       style="fill:none;stroke:#6ec56e;stroke-width:3.2;stroke-linecap:round;stroke-linejoin:round;stroke-miterlimit:10;stroke-opacity:1;stroke-dasharray:none"
       d="m 375.37,593.28 56.7,-182" /><path
       inkscape:connector-curvature="0"
       id="path40"
       style="fill:#6ec56e;fill-opacity:1;fill-rule:nonzero;stroke:none"
       d="m 425.99,409.39 9.36,-8.63 2.79,12.41 -12.15,-3.78 z" /><path
       inkscape:connector-curvature="0"
       id="path42"
       style="fill:none;stroke:#67c267;stroke-width:3.2;stroke-linecap:round;stroke-linejoin:round;stroke-miterlimit:10;stroke-opacity:1;stroke-dasharray:none"
       d="M 578.71,260.62 512.14,133.35" /><path
       inkscape:connector-curvature="0"
       id="path44"
       style="fill:#67c267;fill-opacity:1;fill-rule:nonzero;stroke:none"
       d="m 506.51,136.3 0.53,-12.72 10.74,6.82 -11.27,5.9 z" /><path
       inkscape:connector-curvature="0"
       id="path46"
       style="fill:none;stroke:#65c165;stroke-width:3.2;stroke-linecap:round;stroke-linejoin:round;stroke-miterlimit:10;stroke-opacity:1;stroke-dasharray:none"
       d="m 607.14,346.27 20.8,129.61" /><path
       inkscape:connector-curvature="0"
       id="path48"
       style="fill:#65c165;fill-opacity:1;fill-rule:nonzero;stroke:none"
       d="m 634.22,474.88 -4.54,11.89 -8.03,-9.88 12.57,-2.01 z" /><path
       inkscape:connector-curvature="0"
       id="path50"
       style="fill:none;stroke:#31ac31;stroke-width:3.2;stroke-linecap:round;stroke-linejoin:round;stroke-miterlimit:10;stroke-opacity:1;stroke-dasharray:none"
       d="m 128.56,324.92 263.93,26.52" /><path
       inkscape:connector-curvature="0"
       id="path52"
       style="fill:#31ac31;fill-opacity:1;fill-rule:nonzero;stroke:none"
       d="m 393.13,345.11 10.33,7.43 -11.6,5.23 1.27,-12.66 z" /><path
       inkscape:connector-curvature="0"
       id="path54"
       style="fill:none;stroke:#006400;stroke-width:3.2;stroke-linecap:round;stroke-linejoin:round;stroke-miterlimit:10;stroke-opacity:1;stroke-dasharray:none"
       d="M 603.45,500.77 490.49,395.74" /><path
       inkscape:connector-curvature="0"
       id="path56"
       style="fill:#006400;fill-opacity:1;fill-rule:nonzero;stroke:none"
       d="m 486.16,400.4 -3.74,-12.16 12.4,2.84 -8.66,9.32 z" /><path
       inkscape:connector-curvature="0"
       id="path58"
       style="fill:none;stroke:#006400;stroke-width:3.2;stroke-linecap:round;stroke-linejoin:round;stroke-miterlimit:10;stroke-opacity:1;stroke-dasharray:none"
       d="m 557.04,317.02 -54.9,20.36" /><path
       inkscape:connector-curvature="0"
       id="path60"
       style="fill:#006400;fill-opacity:1;fill-rule:nonzero;stroke:none"
       d="m 504.35,343.35 -12.55,-2.13 8.13,-9.8 4.42,11.93 z" /><path
       inkscape:connector-curvature="0"
       id="path62"
       style="fill:#000000;fill-opacity:1;fill-rule:nonzero;stroke:none"
       d="m 320.16,92.91 33.08,0 0,12.2 -33.08,0 0,-12.2 z" /><path
       inkscape:connector-curvature="0"
       id="path64"
       style="fill:#000000;fill-opacity:1;fill-rule:nonzero;stroke:none"
       d="m 301.71,229.92 33.08,0 0,12.21 -33.08,0 0,-12.21 z" /><path
       inkscape:connector-curvature="0"
       id="path66"
       style="fill:#000000;fill-opacity:1;fill-rule:nonzero;stroke:none"
       d="m 464.3,462.92 33.08,0 0,12.21 -33.08,0 0,-12.21 z" /><path
       inkscape:connector-curvature="0"
       id="path68"
       style="fill:#000000;fill-opacity:1;fill-rule:nonzero;stroke:none"
       d="m 450.85,213.99 33.09,0 0,12.21 -33.09,0 0,-12.21 z" /><path
       inkscape:connector-curvature="0"
       id="path70"
       style="fill:#000000;fill-opacity:1;fill-rule:nonzero;stroke:none"
       d="m 261.65,442.96 33.08,0 0,12.2 -33.08,0 0,-12.2 z" /><path
       inkscape:connector-curvature="0"
       id="path72"
       style="fill:#000000;fill-opacity:1;fill-rule:nonzero;stroke:none"
       d="m 388.82,490.91 33.08,0 0,12.21 -33.08,0 0,-12.21 z" /><path
       inkscape:connector-curvature="0"
       id="path74"
       style="fill:#000000;fill-opacity:1;fill-rule:nonzero;stroke:none"
       d="m 526.33,186 33.08,0 0,12.21 -33.08,0 0,-12.21 z" /><path
       inkscape:connector-curvature="0"
       id="path76"
       style="fill:#000000;fill-opacity:1;fill-rule:nonzero;stroke:none"
       d="m 601.87,410.41 33.08,0 0,12.21 -33.08,0 0,-12.21 z" /><path
       inkscape:connector-curvature="0"
       id="path78"
       style="fill:#000000;fill-opacity:1;fill-rule:nonzero;stroke:none"
       d="m 249.47,332.63 33.08,0 0,12.2 -33.08,0 0,-12.2 z" /><path
       inkscape:connector-curvature="0"
       id="path80"
       style="fill:#000000;fill-opacity:1;fill-rule:nonzero;stroke:none"
       d="m 526.39,438.4 33.08,0 0,12.21 -33.08,0 0,-12.21 z" /><path
       inkscape:connector-curvature="0"
       id="path82"
       style="fill:#000000;fill-opacity:1;fill-rule:nonzero;stroke:none"
       d="m 507.88,323.02 33.08,0 0,12.2 -33.08,0 0,-12.2 z" /><text
       id="text84"
       transform="scale(1,-1)"
       x="320.16"
       y="-93.199997"><tspan
         id="tspan86"
         sodipodi:role="line"
         y="-93.199997"
         x="320.16 329.612 334.33801 343.79001"
         style="font-size:17px;font-variant:normal;font-weight:normal;writing-mode:lr-tb;fill:#bce4bc;fill-opacity:1;fill-rule:nonzero;stroke:none;font-family:Helvetica;-inkscape-font-specification:Helvetica">0.01</tspan></text>
<text
       id="text88"
       transform="scale(1,-1)"
       x="301.70999"
       y="-230.21001"><tspan
         id="tspan90"
         sodipodi:role="line"
         y="-230.21001"
         x="301.70999 311.16199 315.888 325.34"
         style="font-size:17px;font-variant:normal;font-weight:normal;writing-mode:lr-tb;fill:#bae4ba;fill-opacity:1;fill-rule:nonzero;stroke:none;font-family:Helvetica;-inkscape-font-specification:Helvetica">0.01</tspan></text>
<text
       id="text92"
       transform="scale(1,-1)"
       x="464.29999"
       y="-463.20999"><tspan
         id="tspan94"
         sodipodi:role="line"
         y="-463.20999"
         x="464.29999 473.75201 478.478 487.92999"
         style="font-size:17px;font-variant:normal;font-weight:normal;writing-mode:lr-tb;fill:#b8e3b8;fill-opacity:1;fill-rule:nonzero;stroke:none;font-family:Helvetica;-inkscape-font-specification:Helvetica">0.01</tspan></text>
<text
       id="text96"
       transform="scale(1,-1)"
       x="450.85001"
       y="-214.28"><tspan
         id="tspan98"
         sodipodi:role="line"
         y="-214.28"
         x="450.85001 460.302 465.02802 474.48001"
         style="font-size:17px;font-variant:normal;font-weight:normal;writing-mode:lr-tb;fill:#9fd99f;fill-opacity:1;fill-rule:nonzero;stroke:none;font-family:Helvetica;-inkscape-font-specification:Helvetica">0.02</tspan></text>
<text
       id="text100"
       transform="scale(1,-1)"
       x="261.64999"
       y="-443.25"><tspan
         id="tspan102"
         sodipodi:role="line"
         y="-443.25"
         x="261.64999 271.10199 275.828 285.28"
         style="font-size:17px;font-variant:normal;font-weight:normal;writing-mode:lr-tb;fill:#90d390;fill-opacity:1;fill-rule:nonzero;stroke:none;font-family:Helvetica;-inkscape-font-specification:Helvetica">0.02</tspan></text>
<text
       id="text104"
       transform="scale(1,-1)"
       x="388.82001"
       y="-491.20001"><tspan
         id="tspan106"
         sodipodi:role="line"
         y="-491.20001"
         x="388.82001 398.272 402.99799 412.45001"
         style="font-size:17px;font-variant:normal;font-weight:normal;writing-mode:lr-tb;fill:#6ec56e;fill-opacity:1;fill-rule:nonzero;stroke:none;font-family:Helvetica;-inkscape-font-specification:Helvetica">0.03</tspan></text>
<text
       id="text108"
       transform="scale(1,-1)"
       x="526.33002"
       y="-186.28999"><tspan
         id="tspan110"
         sodipodi:role="line"
         y="-186.28999"
         x="526.33002 535.78198 540.508 549.96002"
         style="font-size:17px;font-variant:normal;font-weight:normal;writing-mode:lr-tb;fill:#67c267;fill-opacity:1;fill-rule:nonzero;stroke:none;font-family:Helvetica;-inkscape-font-specification:Helvetica">0.03</tspan></text>
<text
       id="text112"
       transform="scale(1,-1)"
       x="601.87"
       y="-410.70001"><tspan
         id="tspan114"
         sodipodi:role="line"
         y="-410.70001"
         x="601.87 611.32202 616.04797 625.5"
         style="font-size:17px;font-variant:normal;font-weight:normal;writing-mode:lr-tb;fill:#65c165;fill-opacity:1;fill-rule:nonzero;stroke:none;font-family:Helvetica;-inkscape-font-specification:Helvetica">0.03</tspan></text>
<text
       id="text116"
       transform="scale(1,-1)"
       x="249.47"
       y="-332.91"><tspan
         id="tspan118"
         sodipodi:role="line"
         y="-332.91"
         x="249.47 258.922 263.64801 273.10001"
         style="font-size:17px;font-variant:normal;font-weight:normal;writing-mode:lr-tb;fill:#31ac31;fill-opacity:1;fill-rule:nonzero;stroke:none;font-family:Helvetica;-inkscape-font-specification:Helvetica">0.04</tspan></text>
<text
       id="text120"
       transform="scale(1,-1)"
       x="526.39001"
       y="-438.69"><tspan
         id="tspan122"
         sodipodi:role="line"
         y="-438.69"
         x="526.39001 535.84198 540.56799 550.02002"
         style="font-size:17px;font-variant:normal;font-weight:normal;writing-mode:lr-tb;fill:#006400;fill-opacity:1;fill-rule:nonzero;stroke:none;font-family:Helvetica;-inkscape-font-specification:Helvetica">0.05</tspan></text>
<text
       id="text124"
       transform="scale(1,-1)"
       x="507.88"
       y="-323.31"><tspan
         id="tspan126"
         sodipodi:role="line"
         y="-323.31"
         x="507.88 517.33197 522.05798 531.51001"
         style="font-size:17px;font-variant:normal;font-weight:normal;writing-mode:lr-tb;fill:#006400;fill-opacity:1;fill-rule:nonzero;stroke:none;font-family:Helvetica;-inkscape-font-specification:Helvetica">0.17</tspan></text>
<path
       inkscape:connector-curvature="0"
       id="path128"
       style="fill:#8dd3c7;fill-opacity:1;fill-rule:nonzero;stroke:#000000;stroke-width:1.07000005;stroke-linecap:round;stroke-linejoin:round;stroke-miterlimit:10;stroke-opacity:1;stroke-dasharray:none"
       d="m 187.55,160.66 2.9,-0.1 2.89,-0.27 2.87,-0.46 2.82,-0.64 2.79,-0.82 2.72,-0.99 2.66,-1.16 2.58,-1.33 2.49,-1.49 2.39,-1.65 2.28,-1.79 2.16,-1.93 2.04,-2.07 1.89,-2.19 1.76,-2.31 1.61,-2.42 1.45,-2.51 1.29,-2.6 1.12,-2.67 0.95,-2.74 0.77,-2.8 0.59,-2.84 0.42,-2.87 0.23,-2.89 0.04,-2.9 -0.14,-2.9 -0.32,-2.88 -0.5,-2.86 -0.68,-2.82 -0.87,-2.77 -1.03,-2.71 -1.21,-2.64 -1.37,-2.56 -1.53,-2.46 -1.68,-2.36 -1.83,-2.25 -1.97,-2.14 -2.1,-2 -2.22,-1.86 -2.33,-1.72 -2.44,-1.57 -2.54,-1.41 -2.62,-1.25 -2.69,-1.08 -2.76,-0.9 -2.8,-0.73 -2.85,-0.55 -2.88,-0.37 -2.9,-0.18 -2.9,0 -2.89,0.18 -2.88,0.37 -2.85,0.55 -2.81,0.73 -2.75,0.9 -2.69,1.08 -2.62,1.25 -2.54,1.41 -2.44,1.57 -2.33,1.72 -2.23,1.86 -2.1,2 -1.96,2.14 -1.83,2.25 -1.69,2.36 -1.53,2.46 -1.37,2.56 -1.2,2.64 -1.04,2.71 -0.86,2.77 -0.68,2.82 -0.51,2.86 -0.32,2.88 -0.13,2.9 0.04,2.9 0.23,2.89 0.41,2.87 0.6,2.84 0.77,2.8 0.95,2.74 1.12,2.67 1.29,2.6 1.45,2.51 1.61,2.42 1.75,2.31 1.9,2.19 2.04,2.07 2.16,1.93 2.28,1.79 2.39,1.65 2.49,1.49 2.58,1.33 2.65,1.16 2.73,0.99 2.78,0.82 2.83,0.64 2.87,0.46 2.88,0.27 2.9,0.1 z" /><path
       inkscape:connector-curvature="0"
       id="path130"
       style="fill:#d9d9d9;fill-opacity:1;fill-rule:nonzero;stroke:#000000;stroke-width:1.07000005;stroke-linecap:round;stroke-linejoin:round;stroke-miterlimit:10;stroke-opacity:1;stroke-dasharray:none"
       d="m 361.78,682.64 2.9,-0.09 2.88,-0.28 2.87,-0.46 2.83,-0.64 2.78,-0.82 2.73,-0.99 2.65,-1.16 2.58,-1.33 2.49,-1.49 2.39,-1.64 2.28,-1.8 2.16,-1.93 2.04,-2.07 1.9,-2.19 1.75,-2.31 1.61,-2.42 1.45,-2.51 1.29,-2.6 1.12,-2.67 0.95,-2.74 0.77,-2.8 0.6,-2.84 0.41,-2.87 0.23,-2.89 0.04,-2.9 -0.13,-2.9 -0.33,-2.88 -0.5,-2.86 -0.68,-2.82 -0.86,-2.77 -1.04,-2.71 -1.2,-2.64 -1.37,-2.55 -1.53,-2.47 -1.69,-2.36 -1.83,-2.25 -1.96,-2.13 -2.1,-2.01 -2.23,-1.86 -2.33,-1.72 -2.44,-1.57 -2.54,-1.41 -2.62,-1.25 -2.69,-1.07 -2.75,-0.91 -2.81,-0.73 -2.85,-0.55 -2.88,-0.36 -2.89,-0.19 -2.9,0 -2.9,0.19 -2.88,0.36 -2.85,0.55 -2.8,0.73 -2.76,0.91 -2.69,1.07 -2.62,1.25 -2.54,1.41 -2.44,1.57 -2.33,1.72 -2.23,1.86 -2.09,2.01 -1.97,2.13 -1.83,2.25 -1.68,2.36 -1.53,2.47 -1.37,2.55 -1.21,2.64 -1.03,2.71 -0.87,2.77 -0.68,2.82 -0.5,2.86 -0.32,2.88 -0.14,2.9 0.04,2.9 0.23,2.89 0.42,2.87 0.59,2.84 0.77,2.8 0.95,2.74 1.12,2.67 1.29,2.6 1.45,2.51 1.61,2.42 1.75,2.31 1.9,2.19 2.04,2.07 2.16,1.93 2.28,1.8 2.39,1.64 2.49,1.49 2.58,1.33 2.66,1.16 2.72,0.99 2.78,0.82 2.83,0.64 2.87,0.46 2.89,0.28 2.9,0.09 z" /><path
       inkscape:connector-curvature="0"
       id="path132"
       style="fill:#bebada;fill-opacity:1;fill-rule:nonzero;stroke:#000000;stroke-width:1.07000005;stroke-linecap:round;stroke-linejoin:round;stroke-miterlimit:10;stroke-opacity:1;stroke-dasharray:none"
       d="m 636.92,577.62 2.9,-0.09 2.89,-0.28 2.86,-0.46 2.83,-0.64 2.79,-0.81 2.72,-1 2.66,-1.16 2.58,-1.33 2.49,-1.49 2.39,-1.64 2.28,-1.8 2.16,-1.93 2.03,-2.07 1.9,-2.19 1.76,-2.31 1.61,-2.41 1.45,-2.52 1.29,-2.6 1.12,-2.67 0.95,-2.74 0.77,-2.8 0.59,-2.84 0.42,-2.87 0.23,-2.89 0.04,-2.9 -0.14,-2.9 -0.32,-2.88 -0.5,-2.86 -0.69,-2.82 -0.86,-2.77 -1.03,-2.71 -1.21,-2.64 -1.37,-2.55 -1.53,-2.47 -1.68,-2.36 -1.83,-2.25 -1.97,-2.13 -2.1,-2.01 -2.22,-1.86 -2.33,-1.72 -2.44,-1.57 -2.54,-1.41 -2.62,-1.25 -2.69,-1.07 -2.76,-0.91 -2.81,-0.73 -2.84,-0.55 -2.88,-0.36 -2.9,-0.19 -2.9,0 -2.89,0.19 -2.88,0.36 -2.85,0.55 -2.81,0.73 -2.75,0.91 -2.7,1.07 -2.61,1.25 -2.54,1.41 -2.44,1.57 -2.34,1.72 -2.22,1.86 -2.1,2.01 -1.97,2.13 -1.82,2.25 -1.69,2.36 -1.53,2.47 -1.37,2.55 -1.2,2.64 -1.04,2.71 -0.86,2.77 -0.68,2.82 -0.51,2.86 -0.32,2.88 -0.14,2.9 0.05,2.9 0.23,2.89 0.41,2.87 0.6,2.84 0.77,2.8 0.95,2.74 1.12,2.67 1.29,2.6 1.45,2.52 1.61,2.41 1.75,2.31 1.9,2.19 2.04,2.07 2.16,1.93 2.28,1.8 2.39,1.64 2.49,1.49 2.58,1.33 2.65,1.16 2.73,1 2.78,0.81 2.83,0.64 2.87,0.46 2.88,0.28 2.9,0.09 z" /><path
       inkscape:connector-curvature="0"
       id="path134"
       style="fill:#fb8072;fill-opacity:1;fill-rule:nonzero;stroke:#000000;stroke-width:1.07000005;stroke-linecap:round;stroke-linejoin:round;stroke-miterlimit:10;stroke-opacity:1;stroke-dasharray:none"
       d="m 599.9,346.84 2.9,-0.09 2.89,-0.27 2.86,-0.46 2.83,-0.64 2.78,-0.82 2.73,-0.99 2.66,-1.16 2.57,-1.33 2.49,-1.49 2.39,-1.65 2.28,-1.79 2.16,-1.94 2.04,-2.06 1.9,-2.2 1.76,-2.3 1.6,-2.42 1.45,-2.51 1.29,-2.6 1.12,-2.68 0.95,-2.74 0.77,-2.79 0.6,-2.84 0.41,-2.87 0.23,-2.9 0.05,-2.9 -0.14,-2.89 -0.32,-2.89 -0.51,-2.85 -0.68,-2.82 -0.86,-2.77 -1.04,-2.71 -1.2,-2.64 -1.37,-2.56 -1.53,-2.46 -1.68,-2.37 -1.83,-2.25 -1.97,-2.13 -2.1,-2 -2.22,-1.86 -2.34,-1.72 -2.44,-1.57 -2.53,-1.41 -2.62,-1.25 -2.7,-1.08 -2.75,-0.9 -2.81,-0.73 -2.85,-0.55 -2.88,-0.37 -2.89,-0.18 -2.9,0 -2.9,0.18 -2.87,0.37 -2.85,0.55 -2.81,0.73 -2.76,0.9 -2.69,1.08 -2.62,1.25 -2.53,1.41 -2.44,1.57 -2.34,1.72 -2.22,1.86 -2.1,2 -1.97,2.13 -1.83,2.25 -1.68,2.37 -1.53,2.46 -1.37,2.56 -1.21,2.64 -1.03,2.71 -0.86,2.77 -0.69,2.82 -0.5,2.85 -0.32,2.89 -0.14,2.89 0.05,2.9 0.23,2.9 0.41,2.87 0.59,2.84 0.78,2.79 0.94,2.74 1.13,2.68 1.28,2.6 1.45,2.51 1.61,2.42 1.76,2.3 1.9,2.2 2.03,2.06 2.16,1.94 2.28,1.79 2.39,1.65 2.49,1.49 2.58,1.33 2.66,1.16 2.72,0.99 2.79,0.82 2.83,0.64 2.86,0.46 2.89,0.27 2.9,0.09 z" /><path
       inkscape:connector-curvature="0"
       id="path136"
       style="fill:#80b1d3;fill-opacity:1;fill-rule:nonzero;stroke:#000000;stroke-width:1.07000005;stroke-linecap:round;stroke-linejoin:round;stroke-miterlimit:10;stroke-opacity:1;stroke-dasharray:none"
       d="m 485.85,128.79 2.9,-0.09 2.89,-0.28 2.86,-0.45 2.83,-0.64 2.78,-0.82 2.73,-0.99 2.66,-1.17 2.57,-1.33 2.49,-1.49 2.39,-1.64 2.28,-1.79 2.16,-1.94 2.04,-2.07 1.9,-2.19 1.76,-2.31 1.6,-2.41 1.45,-2.51 1.29,-2.6 1.12,-2.68 0.95,-2.74 0.77,-2.8 0.6,-2.83 0.41,-2.88 0.23,-2.89 0.05,-2.9 -0.14,-2.9 -0.32,-2.88 -0.51,-2.86 -0.68,-2.81 -0.86,-2.77 -1.04,-2.71 -1.2,-2.64 -1.37,-2.56 -1.53,-2.47 -1.68,-2.36 -1.83,-2.25 -1.97,-2.13 -2.1,-2 -2.22,-1.87 -2.34,-1.72 -2.44,-1.57 -2.53,-1.41 -2.62,-1.24 -2.7,-1.08 -2.75,-0.91 -2.81,-0.72 -2.85,-0.55 -2.88,-0.37 -2.89,-0.18 -2.9,0 -2.9,0.18 -2.87,0.37 -2.85,0.55 -2.81,0.72 -2.76,0.91 -2.69,1.08 -2.62,1.24 -2.53,1.41 -2.44,1.57 -2.34,1.72 -2.22,1.87 -2.1,2 -1.97,2.13 -1.83,2.25 -1.68,2.36 -1.53,2.47 -1.37,2.56 -1.21,2.64 -1.03,2.71 -0.86,2.77 -0.69,2.81 -0.5,2.86 -0.32,2.88 -0.14,2.9 0.05,2.9 0.23,2.89 0.41,2.88 0.59,2.83 0.78,2.8 0.94,2.74 1.13,2.68 1.28,2.6 1.45,2.51 1.61,2.41 1.76,2.31 1.9,2.19 2.03,2.07 2.16,1.94 2.28,1.79 2.39,1.64 2.49,1.49 2.58,1.33 2.66,1.17 2.72,0.99 2.79,0.82 2.83,0.64 2.86,0.45 2.89,0.28 2.9,0.09 z" /><path
       inkscape:connector-curvature="0"
       id="path138"
       style="fill:#fdb462;fill-opacity:1;fill-rule:nonzero;stroke:#000000;stroke-width:1.07000005;stroke-linecap:round;stroke-linejoin:round;stroke-miterlimit:10;stroke-opacity:1;stroke-dasharray:none"
       d="m 107.44,586.72 2.9,-0.09 2.88,-0.28 2.87,-0.45 2.83,-0.64 2.78,-0.82 2.73,-0.99 2.65,-1.17 2.58,-1.32 2.49,-1.49 2.39,-1.65 2.28,-1.79 2.16,-1.94 2.04,-2.06 1.9,-2.2 1.75,-2.31 1.61,-2.41 1.45,-2.51 1.29,-2.6 1.12,-2.68 0.95,-2.74 0.77,-2.79 0.6,-2.84 0.41,-2.88 0.23,-2.89 0.04,-2.9 -0.13,-2.89 -0.32,-2.89 -0.51,-2.85 -0.68,-2.82 -0.86,-2.77 -1.04,-2.71 -1.2,-2.64 -1.37,-2.56 -1.53,-2.46 -1.69,-2.37 -1.83,-2.25 -1.96,-2.13 -2.1,-2 -2.23,-1.87 -2.33,-1.72 -2.44,-1.56 -2.54,-1.41 -2.62,-1.25 -2.69,-1.08 -2.75,-0.9 -2.81,-0.73 -2.85,-0.55 -2.88,-0.37 -2.89,-0.18 -2.9,0 -2.9,0.18 -2.88,0.37 -2.85,0.55 -2.8,0.73 -2.76,0.9 -2.69,1.08 -2.62,1.25 -2.54,1.41 -2.44,1.56 -2.33,1.72 -2.22,1.87 -2.1,2 -1.97,2.13 -1.83,2.25 -1.68,2.37 -1.53,2.46 -1.37,2.56 -1.21,2.64 -1.03,2.71 -0.87,2.77 -0.68,2.82 -0.5,2.85 -0.32,2.89 -0.14,2.89 0.04,2.9 0.23,2.89 0.42,2.88 0.59,2.84 0.77,2.79 0.95,2.74 1.12,2.68 1.29,2.6 1.45,2.51 1.61,2.41 1.76,2.31 1.89,2.2 2.04,2.06 2.16,1.94 2.28,1.79 2.39,1.65 2.49,1.49 2.58,1.32 2.66,1.17 2.72,0.99 2.79,0.82 2.82,0.64 2.87,0.45 2.89,0.28 2.9,0.09 z" /><path
       inkscape:connector-curvature="0"
       id="path140"
       style="fill:#b3de69;fill-opacity:1;fill-rule:nonzero;stroke:#000000;stroke-width:1.07000005;stroke-linecap:round;stroke-linejoin:round;stroke-miterlimit:10;stroke-opacity:1;stroke-dasharray:none"
       d="m 448.94,402.82 2.9,-0.09 2.89,-0.27 2.86,-0.46 2.83,-0.64 2.79,-0.82 2.72,-0.99 2.66,-1.16 2.58,-1.33 2.49,-1.49 2.39,-1.65 2.28,-1.79 2.16,-1.93 2.03,-2.07 1.9,-2.19 1.76,-2.31 1.61,-2.42 1.45,-2.51 1.29,-2.6 1.12,-2.67 0.95,-2.75 0.77,-2.79 0.59,-2.84 0.42,-2.87 0.23,-2.89 0.04,-2.9 -0.14,-2.9 -0.32,-2.89 -0.5,-2.85 -0.69,-2.82 -0.86,-2.77 -1.03,-2.71 -1.21,-2.64 -1.37,-2.56 -1.53,-2.46 -1.68,-2.36 -1.83,-2.26 -1.97,-2.13 -2.1,-2 -2.22,-1.86 -2.33,-1.72 -2.44,-1.57 -2.54,-1.41 -2.62,-1.25 -2.69,-1.08 -2.76,-0.9 -2.81,-0.73 -2.84,-0.55 -2.88,-0.37 -2.9,-0.18 -2.9,0 -2.89,0.18 -2.88,0.37 -2.85,0.55 -2.81,0.73 -2.75,0.9 -2.7,1.08 -2.61,1.25 -2.54,1.41 -2.44,1.57 -2.34,1.72 -2.22,1.86 -2.1,2 -1.97,2.13 -1.82,2.26 -1.69,2.36 -1.53,2.46 -1.37,2.56 -1.2,2.64 -1.04,2.71 -0.86,2.77 -0.68,2.82 -0.51,2.85 -0.32,2.89 -0.14,2.9 0.05,2.9 0.23,2.89 0.41,2.87 0.6,2.84 0.77,2.79 0.95,2.75 1.12,2.67 1.29,2.6 1.45,2.51 1.61,2.42 1.75,2.31 1.9,2.19 2.04,2.07 2.16,1.93 2.28,1.79 2.39,1.65 2.49,1.49 2.58,1.33 2.65,1.16 2.73,0.99 2.78,0.82 2.83,0.64 2.87,0.46 2.88,0.27 2.9,0.09 z" /><path
       inkscape:connector-curvature="0"
       id="path142"
       style="fill:#fccde5;fill-opacity:1;fill-rule:nonzero;stroke:#000000;stroke-width:1.07000005;stroke-linecap:round;stroke-linejoin:round;stroke-miterlimit:10;stroke-opacity:1;stroke-dasharray:none"
       d="m 83.08,366.06 2.9,-0.09 2.88,-0.28 2.87,-0.46 2.83,-0.64 2.78,-0.81 2.73,-0.99 2.65,-1.17 2.58,-1.33 2.49,-1.49 2.39,-1.64 2.28,-1.8 2.16,-1.93 2.04,-2.07 1.9,-2.19 1.75,-2.31 1.61,-2.41 1.45,-2.51 1.29,-2.6 1.12,-2.68 0.95,-2.74 0.77,-2.8 0.6,-2.84 0.41,-2.87 0.23,-2.89 0.05,-2.9 -0.14,-2.9 -0.32,-2.88 -0.51,-2.86 -0.68,-2.82 -0.86,-2.77 -1.04,-2.71 -1.2,-2.63 -1.37,-2.56 -1.53,-2.47 -1.69,-2.36 -1.82,-2.25 -1.97,-2.13 -2.1,-2 -2.22,-1.87 -2.34,-1.72 -2.44,-1.57 -2.54,-1.41 -2.61,-1.24 -2.7,-1.08 -2.75,-0.91 -2.81,-0.73 -2.85,-0.54 -2.88,-0.37 -2.89,-0.19 -2.9,0 -2.9,0.19 -2.88,0.37 -2.84,0.54 -2.81,0.73 -2.76,0.91 -2.69,1.08 -2.62,1.24 -2.54,1.41 -2.44,1.57 -2.33,1.72 -2.22,1.87 -2.1,2 -1.97,2.13 -1.83,2.25 -1.68,2.36 -1.53,2.47 -1.37,2.56 -1.21,2.63 -1.03,2.71 -0.86,2.77 -0.69,2.82 -0.5,2.86 -0.32,2.88 -0.14,2.9 0.04,2.9 0.23,2.89 0.42,2.87 0.59,2.84 0.77,2.8 0.95,2.74 1.12,2.68 1.29,2.6 1.45,2.51 1.61,2.41 1.76,2.31 1.9,2.19 2.03,2.07 2.16,1.93 2.28,1.8 2.39,1.64 2.49,1.49 2.58,1.33 2.66,1.17 2.72,0.99 2.79,0.81 2.83,0.64 2.86,0.46 2.89,0.28 2.9,0.09 z" /><text
       id="text144"
       transform="scale(1,-1)"
       x="146.46001"
       y="-108.84"><tspan
         id="tspan146"
         sodipodi:role="line"
         y="-108.84"
         x="146.46001 158.73399 168.186 174.272 183.724 187.498 195.573 205.02499 210.686 220.138"
         style="font-size:17px;font-variant:normal;font-weight:normal;writing-mode:lr-tb;fill:#000000;fill-opacity:1;fill-rule:nonzero;stroke:none;font-family:Helvetica;-inkscape-font-specification:Helvetica">Carnivores</tspan></text>
<text
       id="text148"
       transform="scale(1,-1)"
       x="321.72"
       y="-632.69"><tspan
         id="tspan150"
         sodipodi:role="line"
         y="-632.69"
         x="321.72 332.10699 338.02301 347.47501 356.927 360.70099 368.776 378.228 383.88901 393.341"
         style="font-size:17px;font-variant:normal;font-weight:normal;writing-mode:lr-tb;fill:#000000;fill-opacity:1;fill-rule:nonzero;stroke:none;font-family:Helvetica;-inkscape-font-specification:Helvetica">Frugivores</tspan></text>
<text
       id="text152"
       transform="scale(1,-1)"
       x="595.65997"
       y="-525.79999"><tspan
         id="tspan154"
         sodipodi:role="line"
         y="-525.79999"
         x="595.65997 608.88599 614.37701 623.82898 633.28101 637.05499 645.13 654.58203 660.24298 669.69501"
         style="font-size:17px;font-variant:normal;font-weight:normal;writing-mode:lr-tb;fill:#000000;fill-opacity:1;fill-rule:nonzero;stroke:none;font-family:Helvetica;-inkscape-font-specification:Helvetica">Granivores</tspan></text>
<text
       id="text156"
       transform="scale(1,-1)"
       x="559.02002"
       y="-295.14999"><tspan
         id="tspan158"
         sodipodi:role="line"
         y="-295.14999"
         x="559.02002 571.29401 580.74597 586.40698 595.85901 599.633 607.70801 617.15997 622.82098 632.27301"
         style="font-size:17px;font-variant:normal;font-weight:normal;writing-mode:lr-tb;fill:#000000;fill-opacity:1;fill-rule:nonzero;stroke:none;font-family:Helvetica;-inkscape-font-specification:Helvetica">Herbivores</tspan></text>
<text
       id="text160"
       transform="scale(1,-1)"
       x="446.01999"
       y="-77.800003"><tspan
         id="tspan162"
         sodipodi:role="line"
         y="-77.800003"
         x="446.01999 450.19 458.53 466.03 474.37 481.87 486.04001 489.37 496.495 504.83499 509.82999 518.16998"
         style="font-size:15px;font-variant:normal;font-weight:normal;writing-mode:lr-tb;fill:#000000;fill-opacity:1;fill-rule:nonzero;stroke:none;font-family:Helvetica;-inkscape-font-specification:Helvetica">Insectivores</tspan></text>
<text
       id="text164"
       transform="scale(1,-1)"
       x="65.419998"
       y="-535.73999"><tspan
         id="tspan166"
         sodipodi:role="line"
         y="-535.73999"
         x="65.419998 76.25 84.589996 92.089996 96.260002 104.6 109.82 113.15 120.275 128.61501 133.61 141.95"
         style="font-size:15px;font-variant:normal;font-weight:normal;writing-mode:lr-tb;fill:#000000;fill-opacity:1;fill-rule:nonzero;stroke:none;font-family:Helvetica;-inkscape-font-specification:Helvetica">Nectarivores</tspan></text>
<text
       id="text168"
       transform="scale(1,-1)"
       x="408.07001"
       y="-351.01001"><tspan
         id="tspan170"
         sodipodi:role="line"
         y="-351.01001"
         x="408.07001 421.29599 435.457 444.909 448.68301 456.758 466.20999 471.871 481.323"
         style="font-size:17px;font-variant:normal;font-weight:normal;writing-mode:lr-tb;fill:#000000;fill-opacity:1;fill-rule:nonzero;stroke:none;font-family:Helvetica;-inkscape-font-specification:Helvetica">Omnivores</tspan></text>
<text
       id="text172"
       transform="scale(1,-1)"
       x="42.299999"
       y="-314.01999"><tspan
         id="tspan174"
         sodipodi:role="line"
         y="-314.01999"
         x="42.299999 54.306 58.302002 67.302002 76.302002 80.298004 88.848 98.856003 104.85 114.858"
         style="font-size:18px;font-variant:normal;font-weight:normal;writing-mode:lr-tb;fill:#000000;fill-opacity:1;fill-rule:nonzero;stroke:none;font-family:Helvetica;-inkscape-font-specification:Helvetica">Piscivores</tspan></text>
</g></svg>